<svg id="swelling_of_optic_disc__x28_ophthalmology_only_x29_" xmlns="http://www.w3.org/2000/svg" xmlns:xlink="http://www.w3.org/1999/xlink" width="114.535" height="43" viewBox="0 0 114.535 43">
  <defs>
    <clipPath id="clip-path">
      <rect id="Rectangle_2374" data-name="Rectangle 2374" width="114.535" height="43" fill="none"/>
    </clipPath>
  </defs>
  <path id="Path_6123" data-name="Path 6123" d="M79.67,32.7l1.8.211c.423.105.74.423.633.845a2.17,2.17,0,0,0,3.591,2.113.8.8,0,0,1,1.056.105L87.8,37.352a.8.8,0,0,1-.105,1.056,2.164,2.164,0,0,0,1.056,4.014c.423.105.74.423.633.845l-.322,1.9c-.105.423-.423.74-.845.634a2.17,2.17,0,0,0-2.106,3.591.8.8,0,0,1-.105,1.056L84.634,51.5a.8.8,0,0,1-1.056-.105,2.164,2.164,0,0,0-4.014,1.056c-.105.423-.423.74-.845.633l-1.8-.211c-.423-.105-.74-.423-.633-.845a2.17,2.17,0,0,0-3.59-2.118.8.8,0,0,1-1.056-.105l-1.056-1.377a.8.8,0,0,1,.105-1.056,2.164,2.164,0,0,0-1.056-4.014c-.423-.105-.74-.423-.633-.845l.211-1.8c.105-.423.423-.74.845-.634a2.17,2.17,0,0,0,2.113-3.591.8.8,0,0,1,.105-1.056l1.377-1.056a.8.8,0,0,1,1.056.105,2.164,2.164,0,0,0,4.014-1.056C78.935,32.912,79.248,32.6,79.67,32.7Z" transform="translate(-1.527 -19.19)" fill="#ff4a4a"/>
  <path id="Path_6124" data-name="Path 6124" d="M63.792,25.765l2.43,1.377a1.192,1.192,0,0,1,.423,1.585c-1.8,2.958.528,6.021,3.908,5.176a1.056,1.056,0,0,1,1.377.845l.74,2.641a1.056,1.056,0,0,1-.845,1.377c-3.38.845-3.908,4.648-.845,6.338a1.192,1.192,0,0,1,.423,1.585l-1.377,2.43a1.192,1.192,0,0,1-1.585.423c-3.168-1.69-6.126.634-5.281,4.014a1.056,1.056,0,0,1-.845,1.377l-2.641.74a1.056,1.056,0,0,1-1.377-.845c-.845-3.38-4.648-3.908-6.338-.845a1.192,1.192,0,0,1-1.585.423l-2.43-1.377a1.192,1.192,0,0,1-.423-1.585c1.8-2.958-.528-6.021-3.908-5.176a1.056,1.056,0,0,1-1.377-.845L41.5,42.772a1.056,1.056,0,0,1,.845-1.377c3.38-.845,3.908-4.648.845-6.338a1.192,1.192,0,0,1-.423-1.585l1.377-2.43a1.192,1.192,0,0,1,1.585-.423c2.958,1.8,6.021-.528,5.176-3.908a1.056,1.056,0,0,1,.845-1.377l2.636-.735a1.056,1.056,0,0,1,1.377.845c.845,3.38,4.648,3.908,6.338.845a1.194,1.194,0,0,1,1.691-.524Z" transform="translate(-1.301 -17.948)"/>
  <g id="Group_5861" data-name="Group 5861" transform="translate(0)" clip-path="url(#clip-path)">
    <path id="Path_6125" data-name="Path 6125" d="M-1.907-17.541C-18.552-18.433-32.027-9.219-45.7-.7-27.37-17.541-13.2-21.9-.619-21.6,26.925-21.007,30.2,5.348,56.846-3.47,32.473,8.52,26.033-16.052-1.907-17.541Z" transform="translate(57.688 21.699)"/>
    <path id="Path_6126" data-name="Path 6126" d="M.955,17.339C17.6,18.23,31.074,9.016,44.747.5,26.517,17.441,12.249,21.8-.234,21.5c-27.543-.6-30.813-26.95-57.466-18.132C-33.426-8.718-26.985,15.853.955,17.339Z" transform="translate(57.799 21.5)"/>
  </g>
  <path id="Path_6127" data-name="Path 6127" d="M60.527,32.856A7.79,7.79,0,1,1,49.858,35.6a7.87,7.87,0,0,1,10.669-2.746" transform="translate(-0.901 -18.878)" fill="#fff"/>
  <path id="Path_6128" data-name="Path 6128" d="M79.6,37.6a5.011,5.011,0,1,1-3.732.93A5.017,5.017,0,0,1,79.6,37.6Z" transform="translate(-1.097 -18.83)" fill="#fff"/>
</svg>
