<svg xmlns="http://www.w3.org/2000/svg" xmlns:xlink="http://www.w3.org/1999/xlink" width="181.567" height="68.221" viewBox="0 0 181.567 68.221">
  <defs>
    <clipPath id="clip-path">
      <rect id="Rectangle_2345" data-name="Rectangle 2345" width="181.567" height="68.221" fill="none"/>
    </clipPath>
  </defs>
  <g id="Diplopia" transform="translate(0 -1.289)">
    <g id="Group_5606" data-name="Group 5606" transform="translate(62.398 9.129)">
      <path id="Path_5761" data-name="Path 5761" d="M54.1,38.155A14.767,14.767,0,1,0,70.4,18.178c.01.261.039.517.039.781A19.458,19.458,0,0,1,54.1,38.155Z" transform="translate(-31.499 0.517)" fill="none"/>
      <path id="Path_5762" data-name="Path 5762" d="M66.123,18.984c0-.287-.027-.566-.043-.849a14.763,14.763,0,0,0-12.644,14.6c0,.287.027.566.043.849A14.763,14.763,0,0,0,66.123,18.984Z" transform="translate(-31.88 0.493)" fill="none"/>
      <path id="Path_5763" data-name="Path 5763" d="M71.2,18.6a14.767,14.767,0,1,0-16.3,19.977c-.01-.261-.039-.518-.039-.781A19.458,19.458,0,0,1,71.2,18.6Z" transform="translate(-38.008 -4.57)" fill="none"/>
      <path id="Path_5764" data-name="Path 5764" d="M66.065,18.2c.016.283.043.562.043.849a14.763,14.763,0,0,1-12.644,14.6,14.69,14.69,0,0,0,1.005,4.593,19.458,19.458,0,0,0,16.336-19.2c0-.264-.029-.52-.039-.781a13.7,13.7,0,0,0-4.7-.068Z" transform="translate(-31.864 0.43)" fill="#ff4a4a"/>
      <path id="Path_5765" data-name="Path 5765" d="M44.413,25.755a14.767,14.767,0,0,1,28.5-5.442,19.513,19.513,0,0,1,3.134-.275c.6,0,1.191.037,1.778.09A19.468,19.468,0,1,0,57.408,45.136a19.446,19.446,0,0,1-.794-4.846,14.766,14.766,0,0,1-12.2-14.535Z" transform="translate(-39.716 -6.279)" fill="#ff4a4a"/>
      <path id="Path_5766" data-name="Path 5766" d="M71.695,15.126c-.586-.053-1.178-.09-1.778-.09a19.613,19.613,0,0,0-19.47,19.47c0,.264.029.52.039.781A19.459,19.459,0,1,0,71.695,15.126ZM69.917,49.28a14.738,14.738,0,0,1-14.73-13.924c-.016-.283-.043-.562-.043-.849A14.773,14.773,0,1,1,69.917,49.28Z" transform="translate(-33.587 -1.277)"/>
    </g>
    <g id="Group_5607" data-name="Group 5607" transform="translate(0 1.289)" clip-path="url(#clip-path)">
      <path id="Path_5767" data-name="Path 5767" d="M81.517,6.558C55.183,5.131,33.793,19.684,12.042,33.229,41.037,6.5,63.627-.423,83.508.02c43.74.973,48.821,42.7,91.182,28.679C136.064,48.012,125.883,9.023,81.517,6.558Z" transform="translate(6.877 0)"/>
      <path id="Path_5768" data-name="Path 5768" d="M93.173,49.241c26.334,1.427,47.724-13.125,69.476-26.671-29,26.731-51.585,33.652-71.467,33.21C47.442,54.806,42.361,13.084,0,27.1,38.626,7.787,48.807,46.776,93.173,49.241Z" transform="translate(0 12.421)"/>
    </g>
  </g>
</svg>
