<svg xmlns="http://www.w3.org/2000/svg" xmlns:xlink="http://www.w3.org/1999/xlink" width="181.567" height="68.221" viewBox="0 0 181.567 68.221">
  <defs>
    <clipPath id="clip-path">
      <rect id="Rectangle_2346" data-name="Rectangle 2346" width="181.567" height="68.221" fill="none"/>
    </clipPath>
  </defs>
  <g id="unbranded-TED-symptoms_dryEyes-grittiness" transform="translate(0 -1.289)">
    <circle id="Ellipse_125" data-name="Ellipse 125" cx="1.652" cy="1.652" r="1.652" transform="translate(26.421 33.164)" fill="#ff4a4a"/>
    <circle id="Ellipse_126" data-name="Ellipse 126" cx="1.652" cy="1.652" r="1.652" transform="translate(32.647 26.937)" fill="#ff4a4a"/>
    <circle id="Ellipse_127" data-name="Ellipse 127" cx="1.652" cy="1.652" r="1.652" transform="translate(38.917 33.164)" fill="#ff4a4a"/>
    <circle id="Ellipse_128" data-name="Ellipse 128" cx="1.652" cy="1.652" r="1.652" transform="translate(45.187 39.391)" fill="#ff4a4a"/>
    <circle id="Ellipse_129" data-name="Ellipse 129" cx="1.652" cy="1.652" r="1.652" transform="translate(51.414 45.704)" fill="#ff4a4a"/>
    <circle id="Ellipse_130" data-name="Ellipse 130" cx="1.652" cy="1.652" r="1.652" transform="translate(51.457 33.164)" fill="#ff4a4a"/>
    <circle id="Ellipse_131" data-name="Ellipse 131" cx="1.652" cy="1.652" r="1.652" transform="translate(59.068 25.813)" fill="#ff4a4a"/>
    <circle id="Ellipse_132" data-name="Ellipse 132" cx="1.652" cy="1.652" r="1.652" transform="translate(57.684 39.304)" fill="#ff4a4a"/>
    <circle id="Ellipse_133" data-name="Ellipse 133" cx="1.652" cy="1.652" r="1.652" transform="translate(45.014 26.98)" fill="#ff4a4a"/>
    <circle id="Ellipse_134" data-name="Ellipse 134" cx="1.652" cy="1.652" r="1.652" transform="translate(38.874 20.71)" fill="#ff4a4a"/>
    <circle id="Ellipse_135" data-name="Ellipse 135" cx="1.652" cy="1.652" r="1.652" transform="translate(80.948 51.304)" fill="#ff4a4a"/>
    <circle id="Ellipse_136" data-name="Ellipse 136" cx="1.652" cy="1.652" r="1.652" transform="translate(74.505 45.12)" fill="#ff4a4a"/>
    <circle id="Ellipse_137" data-name="Ellipse 137" cx="1.652" cy="1.652" r="1.652" transform="translate(68.365 38.85)" fill="#ff4a4a"/>
    <circle id="Ellipse_138" data-name="Ellipse 138" cx="1.652" cy="1.652" r="1.652" transform="translate(105.855 26.332)" fill="#ff4a4a"/>
    <circle id="Ellipse_139" data-name="Ellipse 139" cx="1.652" cy="1.652" r="1.652" transform="translate(113.639 19.781)" fill="#ff4a4a"/>
    <circle id="Ellipse_140" data-name="Ellipse 140" cx="1.652" cy="1.652" r="1.652" transform="translate(106.504 12.322)" fill="#ff4a4a"/>
    <circle id="Ellipse_141" data-name="Ellipse 141" cx="1.652" cy="1.652" r="1.652" transform="translate(105.79 38.915)" fill="#ff4a4a"/>
    <circle id="Ellipse_142" data-name="Ellipse 142" cx="1.652" cy="1.652" r="1.652" transform="translate(93.272 51.369)" fill="#ff4a4a"/>
    <circle id="Ellipse_143" data-name="Ellipse 143" cx="1.652" cy="1.652" r="1.652" transform="translate(99.412 20.148)" fill="#ff4a4a"/>
    <circle id="Ellipse_144" data-name="Ellipse 144" cx="1.652" cy="1.652" r="1.652" transform="translate(93.272 13.878)" fill="#ff4a4a"/>
    <circle id="Ellipse_145" data-name="Ellipse 145" cx="1.652" cy="1.652" r="1.652" transform="translate(99.499 45.142)" fill="#ff4a4a"/>
    <circle id="Ellipse_146" data-name="Ellipse 146" cx="1.652" cy="1.652" r="1.652" transform="translate(80.732 26.375)" fill="#ff4a4a"/>
    <circle id="Ellipse_147" data-name="Ellipse 147" cx="1.652" cy="1.652" r="1.652" transform="translate(87.024 20.213)" fill="#ff4a4a"/>
    <circle id="Ellipse_148" data-name="Ellipse 148" cx="1.652" cy="1.652" r="1.652" transform="translate(80.732 13.792)" fill="#ff4a4a"/>
    <circle id="Ellipse_149" data-name="Ellipse 149" cx="1.652" cy="1.652" r="1.652" transform="translate(74.592 20.105)" fill="#ff4a4a"/>
    <circle id="Ellipse_150" data-name="Ellipse 150" cx="1.652" cy="1.652" r="1.652" transform="translate(68.17 26.267)" fill="#ff4a4a"/>
    <circle id="Ellipse_151" data-name="Ellipse 151" cx="1.652" cy="1.652" r="1.652" transform="translate(64.041 8.322)" fill="#ff4a4a"/>
    <circle id="Ellipse_152" data-name="Ellipse 152" cx="1.652" cy="1.652" r="1.652" transform="translate(132.859 39.456)" fill="#ff4a4a"/>
    <circle id="Ellipse_153" data-name="Ellipse 153" cx="1.652" cy="1.652" r="1.652" transform="translate(126.417 33.272)" fill="#ff4a4a"/>
    <circle id="Ellipse_154" data-name="Ellipse 154" cx="1.652" cy="1.652" r="1.652" transform="translate(120.276 27.002)" fill="#ff4a4a"/>
    <circle id="Ellipse_155" data-name="Ellipse 155" cx="1.652" cy="1.652" r="1.652" transform="translate(145.118 39.585)" fill="#ff4a4a"/>
    <circle id="Ellipse_156" data-name="Ellipse 156" cx="1.652" cy="1.652" r="1.652" transform="translate(138.957 45.747)" fill="#ff4a4a"/>
    <circle id="Ellipse_157" data-name="Ellipse 157" cx="1.652" cy="1.652" r="1.652" transform="translate(138.675 33.402)" fill="#ff4a4a"/>
    <circle id="Ellipse_158" data-name="Ellipse 158" cx="1.652" cy="1.652" r="1.652" transform="translate(151.453 33.272)" fill="#ff4a4a"/>
    <circle id="Ellipse_159" data-name="Ellipse 159" cx="1.652" cy="1.652" r="1.652" transform="translate(132.535 27.132)" fill="#ff4a4a"/>
    <circle id="Ellipse_160" data-name="Ellipse 160" cx="1.652" cy="1.652" r="1.652" transform="translate(126.438 20.646)" fill="#ff4a4a"/>
    <circle id="Ellipse_161" data-name="Ellipse 161" cx="1.652" cy="1.652" r="1.652" transform="translate(132.73 52.039)" fill="#ff4a4a"/>
    <circle id="Ellipse_162" data-name="Ellipse 162" cx="1.652" cy="1.652" r="1.652" transform="translate(126.287 45.855)" fill="#ff4a4a"/>
    <circle id="Ellipse_163" data-name="Ellipse 163" cx="1.652" cy="1.652" r="1.652" transform="translate(120.406 51.974)" fill="#ff4a4a"/>
    <circle id="Ellipse_164" data-name="Ellipse 164" cx="1.652" cy="1.652" r="1.652" transform="translate(113.833 58.374)" fill="#ff4a4a"/>
    <circle id="Ellipse_165" data-name="Ellipse 165" cx="1.652" cy="1.652" r="1.652" transform="translate(120.146 39.585)" fill="#ff4a4a"/>
    <circle id="Ellipse_166" data-name="Ellipse 166" cx="1.652" cy="1.652" r="1.652" transform="translate(113.379 46.915)" fill="#ff4a4a"/>
    <circle id="Ellipse_167" data-name="Ellipse 167" cx="1.652" cy="1.652" r="1.652" transform="translate(51.328 20.667)" fill="#ff4a4a"/>
    <circle id="Ellipse_168" data-name="Ellipse 168" cx="1.652" cy="1.652" r="1.652" transform="translate(57.641 14.397)" fill="#ff4a4a"/>
    <path id="Path_5769" data-name="Path 5769" d="M66.845,5.4a27.8,27.8,0,1,0,27.8,27.8,27.8,27.8,0,0,0-27.8-27.8Zm0,48.9A21.094,21.094,0,1,1,87.94,33.2,21.094,21.094,0,0,1,66.845,54.3Z" transform="translate(22.298 2.349)"/>
    <path id="Path_5770" data-name="Path 5770" d="M61.486,14.786a13.152,13.152,0,0,0-1.9.139,6.525,6.525,0,0,1-10.223,8.054,13.058,13.058,0,1,0,12.118-8.192Z" transform="translate(27.657 7.708)"/>
    <g id="Group_5608" data-name="Group 5608" transform="translate(0 1.289)" clip-path="url(#clip-path)">
      <path id="Path_5771" data-name="Path 5771" d="M81.517,6.558C55.183,5.131,33.793,19.684,12.042,33.229,41.037,6.5,63.627-.423,83.508.02c43.74.973,48.821,42.7,91.182,28.679C136.064,48.012,125.883,9.023,81.517,6.558Z" transform="translate(6.877 0)"/>
      <path id="Path_5772" data-name="Path 5772" d="M93.173,49.241c26.334,1.427,47.724-13.125,69.476-26.671-29,26.731-51.585,33.652-71.467,33.21C47.442,54.806,42.361,13.084,0,27.1,38.626,7.787,48.807,46.776,93.173,49.241Z" transform="translate(0 12.421)"/>
    </g>
  </g>
</svg>
