<svg xmlns="http://www.w3.org/2000/svg" xmlns:xlink="http://www.w3.org/1999/xlink" width="187.207" height="70.34" viewBox="0 0 187.207 70.34">
  <defs>
    <clipPath id="clip-path">
      <rect id="Rectangle_2349" data-name="Rectangle 2349" width="187.207" height="70.34" fill="none"/>
    </clipPath>
  </defs>
  <g id="Pressure_and_or_pain_behind_the_eyes" data-name="Pressure and/or pain behind the eyes" transform="translate(0 -1.289)">
    <g id="Group_5614" data-name="Group 5614" transform="translate(67.676 11.474)">
      <path id="Path_5803" data-name="Path 5803" d="M64.244,20.544h9.794c1.064,0,1.374.666.688,1.48l-20.983,24.9A18.684,18.684,0,0,0,68.181,12.693l-4.713,6.3C62.83,19.847,63.18,20.544,64.244,20.544Z" transform="translate(-34.36 -4.405)" fill="none"/>
      <path id="Path_5804" data-name="Path 5804" d="M62.685,32.591H55.672a1.28,1.28,0,0,1-1.286-1.823l6.9-19.368a18.668,18.668,0,0,0-4,35.78l6.467-12.86a1.1,1.1,0,0,0-1.066-1.729Z" transform="translate(-39.452 -5.206)" fill="none"/>
      <path id="Path_5805" data-name="Path 5805" d="M79.17,11.088,75.6,15.864A18.683,18.683,0,0,1,61.16,50.1L57.874,54c-.686.814-.855.7-.377-.249l2.112-4.2a18.668,18.668,0,0,1,4-35.78L65.167,9.4a2.841,2.841,0,0,1,2.561-1.763c-.4-.019-.786-.06-1.186-.06A24.7,24.7,0,1,0,79.17,11.088Z" transform="translate(-41.778 -7.576)"/>
      <path id="Path_5806" data-name="Path 5806" d="M75.787,23.693H65.993c-1.064,0-1.413-.7-.776-1.55l4.713-6.3L73.5,11.065A24.454,24.454,0,0,0,62.061,7.613,2.841,2.841,0,0,0,59.5,9.376l-1.557,4.372-6.9,19.368a1.28,1.28,0,0,0,1.286,1.823h7.012a1.1,1.1,0,0,1,1.066,1.729l-6.467,12.86-2.112,4.2c-.478.951-.308,1.063.377.249l3.286-3.9,20.983-24.9C77.161,24.359,76.851,23.693,75.787,23.693Z" transform="translate(-36.11 -7.553)" fill="#ff4a4a"/>
    </g>
    <g id="Group_5615" data-name="Group 5615" transform="translate(0 1.289)" clip-path="url(#clip-path)">
      <path id="Path_5807" data-name="Path 5807" d="M83.675,6.762C56.523,5.291,34.469,20.3,12.042,34.261,41.938,6.7,65.229-.436,85.728.02c45.1,1,50.337,44.022,94.014,29.57C139.916,49.5,129.419,9.3,83.675,6.762Z" transform="translate(7.465 0)"/>
      <path id="Path_5808" data-name="Path 5808" d="M96.067,50.095c27.152,1.471,49.206-13.533,71.634-27.5-29.9,27.561-53.187,34.7-73.686,34.241-45.1-1-50.337-44.022-94.014-29.57C39.826,7.354,50.323,47.553,96.067,50.095Z" transform="translate(0 13.483)"/>
    </g>
  </g>
</svg>
