<svg viewBox="0 0 945 278" xmlns="http://www.w3.org/2000/svg">
  <g fill="none" fill-rule="evenodd">
    <g fill-rule="nonzero">
      <path fill="#4BBFE1"
        d="M25.783 123.306H0V0h25.783v123.306zM89.675 123.306H53.808V0h35.867c22.476 0 39.931 5.507 51.648 16.52C152.56 27.057 158.06 41.9 158.06 60.816c0 18.915-5.977 34.239-17.694 45.013-11.955 11.732-29.171 17.478-50.691 17.478zm-10.282-23.224h13.39c26.063 0 38.975-12.69 38.975-38.788 0-11.493-3.108-20.83-9.325-27.295-6.934-7.183-17.216-10.774-30.846-10.774H79.632v76.857h-.24zM256.708 123.306H179.36V0h77.35v23.225h-51.805v26.337h51.804v22.506h-51.804v28.014h51.804v23.224z">
      </path>
      <path
        d="M454.243 278c-16.27 0-30.147-4.99-41.154-15.21-12.92-11.645-19.62-27.805-19.62-48.006 0-18.3 5.504-33.509 16.51-45.392 11.006-11.882 25.84-18.061 44.025-18.061 18.423 0 33.257 5.941 44.263 18.061 10.767 11.883 16.27 27.093 16.27 45.63 0 18.061-5.503 33.271-16.509 45.154C487.261 271.821 472.427 278 454.243 278zm-.24-104.33c-10.527 0-18.423 3.565-24.404 10.694-5.982 7.368-9.092 17.35-9.092 29.945 0 12.595 3.11 22.577 9.33 29.944 5.982 7.13 14.117 10.695 24.645 10.695 10.528 0 18.423-3.328 24.166-10.457 5.981-7.13 8.853-17.111 8.853-29.707 0-12.595-3.11-22.815-9.332-30.182-5.981-7.367-13.877-10.932-24.165-10.932zM607.342 275.758h-71.506V152.452h25.504v100.081h46.24v23.225zM675.224 276.879h-16.672L607.58 152.69h27.391l25.962 64.005c3.097 7.165 5.479 13.374 7.384 18.867 2.382-6.448 5.002-12.896 7.622-19.105l27.391-64.005h26.439l-54.545 124.427zM822.811 275.758h-77.348V152.452h77.348v23.224h-51.725v26.338h51.725v22.506h-51.725v28.013h51.725zM179.36 275.758V152.452h77.348v23.224h-51.725v26.338h51.725v22.506h-51.725v28.013h51.725v23.225zM945 275.758h-29.88l-.717-1.197c-10.756-17.478-17.688-28.253-20.079-31.844-6.454-9.577-9.322-12.211-10.517-12.93H873.05v45.971h-25.577V152.452h37.05c14.582 0 26.056 3.591 33.705 10.774 6.693 6.465 10.279 15.084 10.279 25.38 0 14.844-7.172 25.619-21.036 31.604 4.064 4.789 13.147 17.479 35.378 51.717l2.151 3.831zm-71.95-67.998h12.191c5.498 0 9.561-1.437 12.669-4.55 3.107-3.112 4.542-6.943 4.542-11.731 0-10.775-5.737-15.803-18.406-15.803H873.05v32.084z"
        fill="#D1D1D1"></path>
    </g>
    <path
      d="M321.52 0h19.686c2.18 0 3.949 1.78 3.949 3.975 0 .493-.092.982-.27 1.442l-45.099 116.587a3.949 3.949 0 01-3.68 2.533h-19.685c-2.18 0-3.948-1.78-3.948-3.975 0-.493.091-.982.269-1.442l45.1-116.588A3.949 3.949 0 01321.52 0z"
      fill="#4BBFE1" style="mix-blend-mode:multiply"></path>
    <path
      d="M341.952 0h-19.685c-2.181 0-3.949 1.78-3.949 3.975 0 .493.091.982.27 1.442l45.099 116.587a3.949 3.949 0 003.679 2.533h19.686c2.18 0 3.948-1.78 3.948-3.975 0-.493-.091-.982-.27-1.442L345.633 2.532A3.949 3.949 0 00341.952 0z"
      fill="#4BBFE1" style="mix-blend-mode:multiply"></path>
    <path
      d="M317.048 276h19.685c2.181 0 3.949-1.78 3.949-3.975 0-.493-.091-.982-.27-1.442l-45.099-116.587a3.949 3.949 0 00-3.679-2.533h-19.686c-2.18 0-3.948 1.78-3.948 3.975 0 .493.091.982.27 1.442l45.098 116.588a3.949 3.949 0 003.68 2.532z"
      fill="#D1D1D1" style="mix-blend-mode:multiply"></path>
    <path
      d="M337.48 276h-19.686c-2.18 0-3.949-1.78-3.949-3.975 0-.493.092-.982.27-1.442l45.099-116.587a3.949 3.949 0 013.68-2.533h19.685c2.18 0 3.948 1.78 3.948 3.975 0 .493-.091.982-.269 1.442l-45.1 116.588A3.949 3.949 0 01337.48 276z"
      fill="#D1D1D1" style="mix-blend-mode:multiply"></path>
  </g>
</svg>