<svg xmlns="http://www.w3.org/2000/svg" width="187" height="187" viewBox="0 0 187 187">
  <g id="noun-landscape-mode-4259816" transform="translate(-126 -56)">
    <path id="Path_11155" data-name="Path 11155" d="M137.688,184.563V79.375h70.125v58.438H219.5V67.688A11.689,11.689,0,0,0,207.813,56H137.688A11.689,11.689,0,0,0,126,67.688V196.25a11.689,11.689,0,0,0,11.688,11.688h11.688V184.563Z" fill="#3d7765" opacity="0.412"/>
    <path id="Path_11156" data-name="Path 11156" d="M350.25,280H221.688A11.689,11.689,0,0,0,210,291.688v70.125A11.689,11.689,0,0,0,221.688,373.5H350.25a11.689,11.689,0,0,0,11.688-11.687V291.688A11.689,11.689,0,0,0,350.25,280Zm-11.687,81.813H233.375V291.688H338.563Z" transform="translate(-48.938 -130.5)" fill="#3d7765"/>
    <path id="Path_11157" data-name="Path 11157" d="M452.75,130.75A46.8,46.8,0,0,0,406,84V95.688a35.1,35.1,0,0,1,35.063,35.063H423.531l23.375,23.375,23.375-23.375Z" transform="translate(-163.125 -16.313)" fill="#3d7765"/>
  </g>
</svg>
