<svg xmlns="http://www.w3.org/2000/svg" xmlns:xlink="http://www.w3.org/1999/xlink" width="182.441" height="68.549" viewBox="0 0 182.441 68.549">
  <defs>
    <clipPath id="clip-path">
      <rect id="Rectangle_2347" data-name="Rectangle 2347" width="182.441" height="68.549" fill="none"/>
    </clipPath>
  </defs>
  <g id="Photophobia" transform="translate(0 -1.289)">
    <g id="Group_5611" data-name="Group 5611" transform="translate(63.657 8.17)">
      <path id="Path_5781" data-name="Path 5781" d="M62.395,13.484,58.921,5.648l-3.472,7.836a19.636,19.636,0,0,1,6.946,0Z" transform="translate(-31.571 -5.648)" fill="#ff4a4a"/>
      <path id="Path_5782" data-name="Path 5782" d="M55.907,13.014,48.985,7.97l.911,8.525a19.779,19.779,0,0,1,6.01-3.48Z" transform="translate(-35.311 -4.305)" fill="#ff4a4a"/>
      <path id="Path_5783" data-name="Path 5783" d="M51.169,15.221l-8.526-.909,5.047,6.92a19.8,19.8,0,0,1,3.479-6.01Z" transform="translate(-38.981 -0.635)" fill="#ff4a4a"/>
      <path id="Path_5784" data-name="Path 5784" d="M77.847,24.246l-7.837-3.473a19.626,19.626,0,0,1,0,6.948Z" transform="translate(-23.145 3.104)" fill="#ff4a4a"/>
      <path id="Path_5785" data-name="Path 5785" d="M75.777,14.309l-8.525.912a19.8,19.8,0,0,1,3.48,6.011Z" transform="translate(-24.741 -0.636)" fill="#ff4a4a"/>
      <path id="Path_5786" data-name="Path 5786" d="M68.847,7.969l-6.92,5.046a19.8,19.8,0,0,1,6.01,3.479Z" transform="translate(-27.822 -4.305)" fill="#ff4a4a"/>
      <path id="Path_5787" data-name="Path 5787" d="M48.987,41.1l6.919-5.046a19.79,19.79,0,0,1-6.01-3.479Z" transform="translate(-35.311 9.935)" fill="#ff4a4a"/>
      <path id="Path_5788" data-name="Path 5788" d="M61.928,36.057,68.849,41.1l-.911-8.523a19.812,19.812,0,0,1-6.011,3.479Z" transform="translate(-27.822 9.935)" fill="#ff4a4a"/>
      <path id="Path_5789" data-name="Path 5789" d="M67.253,33.262l8.525.909-5.046-6.919a19.8,19.8,0,0,1-3.479,6.01Z" transform="translate(-24.74 6.854)" fill="#ff4a4a"/>
      <path id="Path_5790" data-name="Path 5790" d="M47.851,24.247a19.909,19.909,0,0,1,.31-3.474l-7.837,3.475,7.837,3.473a19.9,19.9,0,0,1-.31-3.474Z" transform="translate(-40.324 3.104)" fill="#ff4a4a"/>
      <path id="Path_5791" data-name="Path 5791" d="M42.645,34.174l8.524-.911a19.791,19.791,0,0,1-3.479-6.011Z" transform="translate(-38.98 6.854)" fill="#ff4a4a"/>
      <path id="Path_5792" data-name="Path 5792" d="M55.449,35.334l3.475,7.836L62.4,35.334a19.639,19.639,0,0,1-6.947,0Z" transform="translate(-31.571 11.53)" fill="#ff4a4a"/>
      <path id="Path_5793" data-name="Path 5793" d="M64.045,11.92A17.45,17.45,0,1,0,81.494,29.37,17.45,17.45,0,0,0,64.045,11.92Z" transform="translate(-36.695 -2.019)"/>
      <circle id="Ellipse_169" data-name="Ellipse 169" cx="7.625" cy="7.625" r="7.625" transform="translate(19.726 19.725)" fill="#fff"/>
    </g>
    <g id="Group_5612" data-name="Group 5612" transform="translate(0 1.289)" clip-path="url(#clip-path)">
      <path id="Path_5794" data-name="Path 5794" d="M81.851,6.59C55.391,5.156,33.9,19.778,12.042,33.389,41.177,6.53,63.875-.425,83.852.02c43.95.978,49.056,42.9,91.62,28.817C136.66,48.243,126.43,9.067,81.851,6.59Z" transform="translate(6.968 0)"/>
      <path id="Path_5795" data-name="Path 5795" d="M93.621,49.373c26.461,1.434,47.953-13.188,69.81-26.8C134.3,49.433,111.6,56.388,91.62,55.943,47.67,54.965,42.565,13.042,0,27.126,38.812,7.72,49.042,46.9,93.621,49.373Z" transform="translate(0 12.586)"/>
    </g>
  </g>
</svg>
