<svg xmlns="http://www.w3.org/2000/svg" width="181.438" height="182" viewBox="0 0 181.438 182">
  <g id="noun-landscape-mode-4259816" transform="translate(-123.5 -56)">
    <path id="Path_11155" data-name="Path 11155" d="M81.813,128.563V23.375H11.688V81.813H0V11.688A11.689,11.689,0,0,1,11.688,0H81.813A11.689,11.689,0,0,1,93.5,11.688V140.25a11.689,11.689,0,0,1-11.687,11.688H70.125V128.563Z" transform="translate(304.938 144.5) rotate(90)" fill="#3d7765" opacity="0.412"/>
    <path id="Path_11156" data-name="Path 11156" d="M221.688,373.5H350.25a11.689,11.689,0,0,0,11.688-11.687V291.688A11.689,11.689,0,0,0,350.25,280H221.688A11.689,11.689,0,0,0,210,291.688v70.125A11.689,11.689,0,0,0,221.688,373.5Zm11.688-81.812H338.563v70.125H233.375Z" transform="translate(497 -154) rotate(90)" fill="#3d7765"/>
    <path id="Path_11157" data-name="Path 11157" d="M423.531,130.75A46.8,46.8,0,0,1,470.281,84V95.688a35.1,35.1,0,0,0-35.062,35.063H452.75l-23.375,23.375L406,130.75Z" transform="translate(370.413 -347.402) rotate(89)" fill="#3d7765"/>
  </g>
</svg>
