<svg xmlns="http://www.w3.org/2000/svg" width="160.563" height="108.737" viewBox="0 0 160.563 108.737">
  <g id="Proptosis" transform="translate(0 -0.757)">
    <path id="Path_5809" data-name="Path 5809" d="M60.444,82.456l6.669-11.55H53.775Z" transform="translate(20.726 27.037)" fill="#ff4a4a"/>
    <path id="Path_5810" data-name="Path 5810" d="M96.015,60.722l-10.31,7.092,10.38,5.421Z" transform="translate(33.033 23.112)" fill="#ff4a4a"/>
    <path id="Path_5811" data-name="Path 5811" d="M25.207,56.738l9.277,8.4-11.007,4Z" transform="translate(9.049 21.577)" fill="#ff4a4a"/>
    <g id="Group_5616" data-name="Group 5616" transform="translate(60.452 34.037)">
      <path id="Path_5812" data-name="Path 5812" d="M64.683,24.779A21.049,21.049,0,1,0,85.733,45.828,21.049,21.049,0,0,0,64.683,24.779Zm0,37.02A15.971,15.971,0,1,1,80.654,45.828,15.971,15.971,0,0,1,64.683,61.8Z" transform="translate(-43.634 -24.779)"/>
      <path id="Path_5813" data-name="Path 5813" d="M61.266,33.646a8.827,8.827,0,0,0-1.272.093,4.379,4.379,0,0,1-6.861,5.405,8.764,8.764,0,1,0,8.133-5.5Z" transform="translate(-40.216 -21.361)"/>
    </g>
    <path id="Path_5814" data-name="Path 5814" d="M115.748,38.373c-10.224,4.953-21.349,2.311-29.088-6.719a41.286,41.286,0,0,0,12.371,5.7,41.431,41.431,0,0,0,16.717,1.019Z" transform="translate(33.401 11.908)" fill="#ff4a4a"/>
    <path id="Path_5815" data-name="Path 5815" d="M36.327,47.79c-8.2-7.861-19.6-8.773-29.743-2.565A41.187,41.187,0,0,1,36.327,47.79Z" transform="translate(2.537 15.569)" fill="#ff4a4a"/>
    <g id="Group_5617" data-name="Group 5617" transform="translate(4.823 0.757)">
      <path id="Path_5816" data-name="Path 5816" d="M60.554.757l6.669,11.55H53.885Z" transform="translate(15.946 -0.757)" fill="#ff4a4a"/>
      <path id="Path_5817" data-name="Path 5817" d="M95.692,27.415l-10.1-7.39,10.533-5.116Z" transform="translate(28.168 4.698)" fill="#ff4a4a"/>
      <path id="Path_5818" data-name="Path 5818" d="M23.477,23.383l10.6-6.65L23.937,10.878Z" transform="translate(4.226 3.144)" fill="#ff4a4a"/>
      <path id="Path_5819" data-name="Path 5819" d="M42.768,28.189A108.358,108.358,0,0,0,3.481,57.951c5.637-8.9,20.158-29.009,46.838-39.168,9.615-3.661,17.687-5.9,28.5-5.657,38.57.858,43.051,37.65,80.406,25.29-8.195,4.1-16.1,6.369-23.406,4.619C112.764,37.51,95.4,4.9,42.768,28.189Z" transform="translate(-3.481 4.004)"/>
    </g>
    <path id="Path_5820" data-name="Path 5820" d="M116.453,63.447a94.388,94.388,0,0,0,35.723-27.488c-2.085,3.32-15.925,24.866-37.2,34.868a90.257,90.257,0,0,1-24.689,7.165,74.922,74.922,0,0,1-9.877.518C41.835,77.651,37.355,40.86,0,53.22c12.428-6.214,23.037-5.684,33.917-1.013C52.856,60.338,70.809,83.036,116.453,63.447Z" transform="translate(0 13.568)"/>
  </g>
</svg>
