<svg xmlns="http://www.w3.org/2000/svg" width="201" height="83.6" viewBox="0 0 201 83.6">
  <g id="Group_3054" data-name="Group 3054" transform="translate(-100.5 -158.2)">
    <path id="Path_1683" data-name="Path 1683"
      d="M104.7,222.5h1.8v-3.6h2.1v3.6h2.3v1.8h-2.3v9.3c0,.9.2,1.5,1.2,1.5a2.483,2.483,0,0,0,.9-.1v1.6a4.678,4.678,0,0,1-1.6.2c-1.6,0-2.6-.6-2.6-2.9v-9.7h-1.8Zm9,7.5v1c0,2.1.4,4.1,2.2,4.1s2.1-1.6,2.1-2.5v-.1h2.1a4.069,4.069,0,0,1-4.2,4.3c-3.7,0-4.3-3-4.3-6.3v-2.3c0-3.5,1.2-6.1,4.4-6.1,3.3,0,4.2,2.6,4.2,5.7v2h-6.5Zm4.4-1.7v-.8c0-1.9-.4-3.5-2.1-3.5-2,0-2.2,2.3-2.2,3.5v.8Zm8.6,8.7a2.819,2.819,0,0,1-2.7-1.5v6.3h-2.1V222.6h2c0,.3.1,1,.1,1.7a2.868,2.868,0,0,1,3-1.9c2.4,0,3.6,1.9,3.6,5.8v2.6c0,4.2-1.5,6.2-3.9,6.2Zm1.8-6.2v-2.6c0-2.8-.7-4-2.1-4-1.9,0-2.4,1.7-2.4,4.4v2c0,2.6.3,4.6,2.2,4.6C127.7,235.1,128.5,233.5,128.5,230.8Zm3.9-3.5v-4.8h2c0,.4.1,1.1.1,2.4a3.567,3.567,0,0,1,3.4-2.6v2.5c-2.1,0-3.4,1.3-3.4,3.9v8.1h-2.1Zm14.8.9v2.6c0,4.2-1.6,6.2-4.4,6.2-2.9,0-4.4-2-4.4-6.2v-2.6c0-4,1.7-5.9,4.5-5.9S147.2,224.3,147.2,228.2Zm-6.6,0v2.6c0,2.8.7,4.3,2.3,4.3,1.5,0,2.2-1.4,2.2-4.3v-2.6c0-2.6-.7-4.1-2.3-4.1C141.3,224.1,140.6,225.4,140.6,228.2Zm7-5.7h1.8v-3.6h2.1v3.6h2.3v1.8h-2.3v9.3c0,.9.2,1.5,1.2,1.5a2.483,2.483,0,0,0,.9-.1v1.6a4.678,4.678,0,0,1-1.6.2c-1.6,0-2.6-.6-2.6-2.9v-9.7h-1.8v-1.7ZM163,232.8v3.9h-2a7.628,7.628,0,0,1-.1-1.7,2.878,2.878,0,0,1-3,1.9c-1.5,0-3.2-.6-3.2-4V222.4h2.1v10c0,1.7.5,2.6,1.8,2.6s2.2-.8,2.2-3.6v-8.9h2.1v10.3Zm2.3-6.1v-4.2h2a7.589,7.589,0,0,1,.1,1.6,2.923,2.923,0,0,1,2.9-1.8,2.483,2.483,0,0,1,2.6,1.9,3.229,3.229,0,0,1,3.1-1.9c1.6,0,3.1.8,3.1,3.8v10.6H177V226.4c0-1.3-.3-2.3-1.7-2.3-1.6,0-2,1.4-2,3.1v9.4h-2.1V226.4c0-1.6-.5-2.4-1.7-2.4-1.5,0-2.1,1.4-2.1,3.3v9.3h-2.1v-9.9Zm24.3,6.1v3.9h-2a7.628,7.628,0,0,1-.1-1.7,2.878,2.878,0,0,1-3,1.9c-1.5,0-3.2-.6-3.2-4V222.4h2.1v10c0,1.7.5,2.6,1.8,2.6s2.2-.8,2.2-3.6v-8.9h2.1v10.3Zm2.3-6.1v-4.2h2a7.588,7.588,0,0,1,.1,1.6,2.923,2.923,0,0,1,2.9-1.8,2.483,2.483,0,0,1,2.6,1.9,3.229,3.229,0,0,1,3.1-1.9c1.6,0,3.1.8,3.1,3.8v10.6h-2.1V226.4c0-1.3-.3-2.3-1.7-2.3-1.6,0-2,1.4-2,3.1v9.4h-2.1V226.4c0-1.6-.5-2.4-1.7-2.4-1.5,0-2.1,1.4-2.1,3.3v9.3h-2.1Zm23.5,7.5a17.041,17.041,0,0,0,.1,2.5h-2a6.149,6.149,0,0,1-.1-1.4,2.871,2.871,0,0,1-2.9,1.6c-2.4,0-3.4-2-3.4-4.1v-.1c0-2.9,1.9-4.5,5.1-4.5h1.1v-2c0-1.2-.2-2.3-1.7-2.3-1.6,0-1.8,1.2-1.9,2.2v.2h-2.1v-.2c0-2,.9-3.9,4-3.9,2.7,0,3.8,1.4,3.8,3.8v8.2Zm-2-4.2h-1.1c-2.1,0-3.1,1-3.1,2.7v.1c0,1.3.5,2.4,1.9,2.4,1.7,0,2.3-1.3,2.3-3.8V230Zm4-13h2.1v7.1a2.924,2.924,0,0,1,3-1.8c2.4,0,3.6,2,3.6,5.8v2.4c0,3.8-.9,6.6-4,6.6a2.567,2.567,0,0,1-2.7-1.7,7.569,7.569,0,0,1-.1,1.5h-2V217Zm6.5,13.5v-2.4c0-2.7-.6-4-2.1-4-1.9,0-2.4,1.7-2.4,4.6v1.9c0,2.9.5,4.4,2.3,4.4C223.2,235,223.9,233.6,223.9,230.5Zm8.9-2v1.9h-5.3v-1.9Zm.2-6h1.8v-3.6h2.1v3.6h2.3v1.8H237v9.3c0,.9.2,1.5,1.2,1.5a2.483,2.483,0,0,0,.9-.1v1.6a4.678,4.678,0,0,1-1.6.2c-1.6,0-2.6-.6-2.6-2.9v-9.7H233Zm7.3,4.8v-4.8h2c0,.4.1,1.1.1,2.4a3.567,3.567,0,0,1,3.4-2.6v2.5c-2.1,0-3.4,1.3-3.4,3.9v8.1h-2.1Zm6.6-10.3H249v7.1a2.924,2.924,0,0,1,3-1.8c2.4,0,3.6,2,3.6,5.8v2.4c0,3.8-.9,6.6-4,6.6a2.567,2.567,0,0,1-2.7-1.7,7.569,7.569,0,0,1-.1,1.5h-2V217Zm6.6,13.5v-2.4c0-2.7-.6-4-2.1-4-1.9,0-2.4,1.7-2.4,4.6v1.9c0,2.9.5,4.4,2.3,4.4C252.8,235,253.5,233.6,253.5,230.5Zm5.1-8c1.2,6.9,1.7,9.8,1.9,11.7h0c.2-1.9.7-4.1,2.3-11.7h2.1c1.4,7.3,2,9.9,2.2,11.6h0c.2-1.6.5-3.7,2-11.6h2.2l-3.1,14.2H266c-.9-4.6-1.8-9-2.1-11.1h0c-.2,2.1-1.1,6-2.2,11.1h-2.3l-2.9-14.2Z"
      fill="#191919" />
    <path id="Path_1684" data-name="Path 1684"
      d="M260.4,183.1h-4.1l-11,29h4.5l2.7-7h11.8l2.7,7h4.4Zm2.3,17.9H254l4.3-11.5ZM224,183.1h19.2v3.5L228.9,208h14.3v4.1H223.6v-3.6l14.3-21.4H224Zm-48.8,0h18.1v4.1H179.4v8.3h13.9v4.1H179.4V208h13.9v4.1H175.2Zm24.1,0h19.2v3.5L204.2,208h14.3v4.1H198.9v-3.6l14.3-21.4H199.4v-4Zm-98.8,0h20.9v4h-8.3v25h-4.2v-25h-8.4Zm59.5,0h-9.3v29h4.2v-8.6H160c6.2,0,10.7-4.3,10.7-10.2S166.2,183.1,160,183.1Zm-.2,16.3h-4.9V187.1h4.9c4,0,6.7,2.5,6.7,6.2C166.4,197,163.8,199.4,159.8,199.4Zm-33.3-16.3h18.1v4.1H130.7v8.3h13.9v4.1H130.7V208h13.9v4.1H126.5Zm147.3,26.5h0a2.5,2.5,0,1,1,5,0h0a2.54,2.54,0,0,1-2.5,2.5A2.476,2.476,0,0,1,273.8,209.6Zm4.5,0h0a2.094,2.094,0,0,0-2-2.1,2.051,2.051,0,0,0-2.1,2.1h0a2.006,2.006,0,0,0,2,2A1.97,1.97,0,0,0,278.3,209.6Zm-3-1.4h1.2a.984.984,0,0,1,.8.3.845.845,0,0,1,.2.6h0a.76.76,0,0,1-.6.8l.6.9h-.7l-.6-.8h-.4v.8h-.6v-2.6Zm1.1,1.3a.457.457,0,0,0,.5-.4h0c0-.3-.2-.4-.5-.4h-.6v.8Z"
      fill="#005133" />
    <g id="Group_3053" data-name="Group 3053">
      <path id="Path_1685" data-name="Path 1685" d="M263.5,171l11,8v4.8L256.9,171l17.7-12.8V163Z" fill="#005133" />
      <path id="Path_1686" data-name="Path 1686" d="M272.8,171l10,7.3v5.5L265.2,171l17.7-12.8v5.5Z" fill="#084" />
      <path id="Path_1687" data-name="Path 1687" d="M283.1,171l9.1,6.6v6.2L274.5,171l17.7-12.8v6.2Z" fill="#60a94f" />
      <path id="Path_1688" data-name="Path 1688"
        d="M301.5,171.2a18.272,18.272,0,0,1-2.9,9.9l-13.8-10,13.7-9.9A17.623,17.623,0,0,1,301.5,171.2Z"
        fill="#a5cf4f" />
    </g>
  </g>
</svg>