<svg width="181" height="122" viewBox="0 0 181 122" fill="none" xmlns="http://www.w3.org/2000/svg">
<path d="M122.758 44.0505L125.562 44.3792C126.221 44.5428 126.715 45.0383 126.549 45.6959C126.369 46.4051 126.424 47.1535 126.706 47.8287C126.988 48.5039 127.481 49.0695 128.111 49.4405C128.742 49.8116 129.476 49.968 130.203 49.8865C130.93 49.8049 131.611 49.4897 132.144 48.9882C132.391 48.8097 132.694 48.7278 132.998 48.7579C133.301 48.7881 133.582 48.9282 133.789 49.1518L135.425 51.2989C135.604 51.5458 135.686 51.8495 135.656 52.1526C135.625 52.4558 135.485 52.7374 135.262 52.9443C134.639 53.3212 134.156 53.8893 133.883 54.5637C133.61 55.2381 133.563 55.9827 133.748 56.6863C133.933 57.3898 134.34 58.0147 134.91 58.4675C135.479 58.9203 136.18 59.1768 136.907 59.1987C137.566 59.3623 138.06 59.8578 137.893 60.5153L137.392 63.4758C137.228 64.1349 136.733 64.6288 136.075 64.4636C135.367 64.2874 134.62 64.3451 133.947 64.6283C133.275 64.9114 132.711 65.4046 132.342 66.0343C131.973 66.664 131.817 67.3962 131.899 68.1217C131.98 68.8471 132.294 69.5267 132.794 70.0589C132.972 70.3058 133.054 70.6095 133.024 70.9126C132.994 71.2158 132.854 71.4974 132.63 71.7043L130.492 73.3434C130.245 73.522 129.942 73.6039 129.639 73.5737C129.335 73.5436 129.054 73.4035 128.847 73.1798C128.47 72.5576 127.902 72.0739 127.227 71.801C126.553 71.5281 125.808 71.4807 125.105 71.6658C124.401 71.8509 123.776 72.2586 123.324 72.828C122.871 73.3974 122.614 74.098 122.592 74.8252C122.429 75.4843 121.933 75.9783 121.276 75.8115L118.471 75.4828C117.812 75.3192 117.318 74.8237 117.485 74.1661C117.667 73.4566 117.613 72.7072 117.332 72.0308C117.051 71.3543 116.558 70.7873 115.928 70.4152C115.297 70.043 114.562 69.8857 113.834 69.967C113.106 70.0483 112.424 70.3638 111.891 70.866C111.644 71.0445 111.341 71.1264 111.037 71.0963C110.734 71.0662 110.453 70.926 110.246 70.7024L108.6 68.5568C108.422 68.31 108.34 68.0063 108.37 67.7031C108.4 67.4 108.54 67.1183 108.764 66.9115C109.386 66.5346 109.87 65.9665 110.143 65.2921C110.416 64.6177 110.463 63.8731 110.278 63.1695C110.093 62.4659 109.685 61.8411 109.116 61.3883C108.546 60.9355 107.846 60.679 107.119 60.6571C106.46 60.4935 105.966 59.998 106.132 59.3405L106.461 56.5358C106.625 55.8767 107.12 55.3828 107.778 55.548C108.487 55.7277 109.235 55.6725 109.911 55.3907C110.586 55.1089 111.151 54.6157 111.522 53.9851C111.893 53.3545 112.05 52.6206 111.968 51.8935C111.887 51.1664 111.572 50.4854 111.07 49.9527C110.892 49.7058 110.81 49.4021 110.84 49.099C110.87 48.7958 111.01 48.5142 111.234 48.3073L113.379 46.6619C113.626 46.4834 113.93 46.4015 114.233 46.4316C114.536 46.4618 114.818 46.6019 115.025 46.8255C115.401 47.4478 115.97 47.9315 116.644 48.2044C117.318 48.4773 118.063 48.5247 118.767 48.3396C119.47 48.1545 120.095 47.7468 120.548 47.1774C121.001 46.6079 121.257 45.9073 121.279 45.1801C121.612 44.3808 122.1 43.8947 122.758 44.0505Z" fill="#FF4A4A"/>
<path d="M97.8344 35.7965L101.587 37.9296C101.989 38.1772 102.28 38.5698 102.402 39.0266C102.523 39.4834 102.465 39.9695 102.24 40.3849C99.4605 44.967 103.056 49.7118 108.275 48.4028C108.501 48.3277 108.74 48.3029 108.976 48.3303C109.212 48.3576 109.44 48.4364 109.642 48.5611C109.845 48.6858 110.018 48.8534 110.149 49.0521C110.28 49.2509 110.367 49.476 110.402 49.7118L111.545 53.8029C111.62 54.0291 111.644 54.2691 111.617 54.5059C111.59 54.7427 111.511 54.9707 111.387 55.1739C111.263 55.3771 111.096 55.5506 110.897 55.6822C110.699 55.8139 110.475 55.9004 110.24 55.9359C105.02 57.2449 104.205 63.136 108.935 65.7539C109.336 66.0015 109.628 66.3941 109.75 66.8509C109.871 67.3077 109.813 67.7938 109.588 68.2092L107.462 71.9734C107.215 72.3762 106.823 72.6687 106.368 72.7906C105.913 72.9125 105.428 72.8545 105.014 72.6287C100.122 70.0108 95.5534 73.6108 96.8584 78.8466C96.9333 79.0729 96.958 79.3128 96.9307 79.5497C96.9035 79.7865 96.8249 80.0145 96.7006 80.2177C96.5763 80.4209 96.4092 80.5944 96.2111 80.726C96.0129 80.8576 95.7885 80.9442 95.5534 80.9797L91.4749 82.126C91.2494 82.2011 91.0102 82.2259 90.774 82.1986C90.5379 82.1712 90.3107 82.0924 90.1081 81.9678C89.9055 81.8431 89.7326 81.6755 89.6013 81.4767C89.4701 81.2779 89.3838 81.0528 89.3484 80.817C88.0435 75.5812 82.1705 74.7633 79.5606 79.5081C79.3138 79.9109 78.9223 80.2033 78.467 80.3252C78.0116 80.4472 77.5269 80.3892 77.1128 80.1633L73.3602 78.0303C72.9586 77.7827 72.667 77.3901 72.5455 76.9333C72.424 76.4765 72.4818 75.9903 72.7069 75.575C75.4867 70.9929 71.8915 66.2481 66.6718 67.557C66.4462 67.6322 66.207 67.6569 65.9709 67.6296C65.7348 67.6023 65.5075 67.5235 65.3049 67.3988C65.1024 67.2741 64.9294 67.1065 64.7982 66.9077C64.667 66.709 64.5806 66.4838 64.5453 66.2481L63.4086 62.1415C63.3338 61.9152 63.3091 61.6753 63.3363 61.4385C63.3636 61.2016 63.4421 60.9736 63.5664 60.7704C63.6907 60.5673 63.8578 60.3938 64.056 60.2621C64.2541 60.1305 64.4786 60.0439 64.7136 60.0084C69.9334 58.6995 70.7487 52.8084 66.0185 50.1905C65.617 49.9429 65.3254 49.5503 65.2039 49.0935C65.0823 48.6367 65.1401 48.1505 65.3653 47.7352L67.4918 43.971C67.7386 43.5682 68.13 43.2757 68.5854 43.1538C69.0408 43.0319 69.5255 43.0898 69.9395 43.3157C74.5076 46.104 79.2378 42.4978 77.9329 37.262C77.858 37.0357 77.8333 36.7958 77.8605 36.5589C77.8878 36.3221 77.9663 36.0941 78.0906 35.8909C78.2149 35.6877 78.382 35.5142 78.5802 35.3826C78.7783 35.251 79.0028 35.1644 79.2378 35.1289L83.3086 33.9903C83.5342 33.9152 83.7734 33.8904 84.0095 33.9178C84.2456 33.9451 84.4729 34.0239 84.6755 34.1486C84.878 34.2733 85.051 34.4409 85.1822 34.6396C85.3134 34.8384 85.3997 35.0635 85.4351 35.2993C86.7401 40.5351 92.6131 41.353 95.223 36.6082C95.3316 36.374 95.4879 36.1651 95.6819 35.9951C95.8758 35.8252 96.1032 35.6978 96.3492 35.6214C96.5952 35.5449 96.8545 35.521 97.1103 35.5511C97.3661 35.5813 97.6128 35.6649 97.8344 35.7965Z" fill="black"/>
<path d="M87.7338 29.3592C61.7473 27.9666 40.7099 42.3517 19.3634 55.6517C47.9805 29.3592 70.1029 22.5539 89.7446 23.0222C132.747 23.948 137.86 65.0939 179.46 51.3271C141.408 70.0461 131.354 31.6839 87.7338 29.3592Z" fill="black"/>
<path d="M92.3753 83.5037C118.362 84.8948 139.398 70.5097 160.744 57.2144C132.283 83.663 110.008 90.4683 90.519 90C47.5184 89.0632 42.4132 47.9252 0.802124 61.692C38.6991 42.8231 48.7549 81.1838 92.3753 83.5037Z" fill="black"/>
<path d="M93.4208 44.842C95.4108 46.0197 97.0075 47.7622 98.0089 49.849C99.0103 51.9358 99.3716 54.2732 99.0469 56.5657C98.7222 58.8581 97.7262 61.0027 96.1849 62.7281C94.6435 64.4535 92.626 65.6822 90.3876 66.259C88.1491 66.8357 85.7902 66.7345 83.6091 65.9682C81.428 65.2019 79.5228 63.8049 78.1343 61.9538C76.7458 60.1027 75.9365 57.8808 75.8086 55.5689C75.6807 53.257 76.2401 50.9591 77.4159 48.9657C79.014 46.3166 81.5851 44.4007 84.5774 43.6291C87.5697 42.8576 90.7446 43.292 93.4208 44.839" fill="white"/>
<path d="M123.319 52.2463C125.104 52.5155 126.741 53.3952 127.951 54.7356C129.16 56.076 129.868 57.7942 129.954 59.5978C130.039 61.4014 129.497 63.1788 128.419 64.6274C127.341 66.0761 125.794 67.1064 124.042 67.543C122.29 67.9796 120.441 67.7955 118.81 67.022C117.178 66.2485 115.865 64.9334 115.094 63.3007C114.323 61.668 114.142 59.8185 114.581 58.0672C115.021 56.3158 116.053 54.7709 117.504 53.6953C118.33 53.0832 119.269 52.6401 120.267 52.3915C121.265 52.1428 122.302 52.0935 123.319 52.2463Z" fill="white"/>
</svg>
