<svg width="181" height="122" viewBox="0 0 181 122" fill="none" xmlns="http://www.w3.org/2000/svg">
<g clip-path="url(#clip0_2_169)">
<path d="M95.8437 53.0396C95.8596 53.3178 95.8864 53.592 95.8864 53.8741C95.884 57.36 94.6149 60.7285 92.3113 63.3636C90.0077 65.9987 86.8236 67.7242 83.3412 68.2245C83.4268 69.7726 83.7635 71.297 84.3384 72.739C88.8613 72.0107 92.9752 69.7124 95.9446 66.255C98.914 62.7976 100.545 58.4067 100.547 53.8672C100.547 53.6077 100.518 53.3561 100.508 53.0996C98.969 52.8113 97.3914 52.7887 95.8447 53.0327L95.8437 53.0396Z" fill="#FF4A4A"/>
<path d="M66.5704 53.8712C66.5673 50.4917 67.7546 47.2172 69.9276 44.6121C72.1006 42.007 75.1231 40.2348 78.4739 39.6009C81.8247 38.9671 85.2937 39.5114 88.2828 41.14C91.2718 42.7686 93.5935 45.3794 94.8476 48.5222C95.875 48.3493 96.9149 48.2589 97.9571 48.2519C98.5524 48.2519 99.1388 48.2883 99.7212 48.3404C98.7092 45.0163 96.8034 42.0277 94.2079 39.6946C91.6125 37.3616 88.4252 35.7721 84.9875 35.0963C81.5498 34.4206 77.9914 34.6842 74.6934 35.8588C71.3953 37.0334 68.4821 39.0747 66.2656 41.7642C64.0492 44.4536 62.6132 47.6897 62.1114 51.1259C61.6096 54.562 62.0609 58.0687 63.4171 61.2701C64.7732 64.4716 66.9831 67.2472 69.8098 69.2995C72.6366 71.3519 75.9738 72.6037 79.4638 72.9209C78.9991 71.3725 78.7344 69.772 78.676 68.1577C75.2854 67.565 72.2139 65.8082 70.0004 63.1958C67.7869 60.5833 66.5729 57.282 66.5714 53.8712H66.5704Z" fill="#FF4A4A"/>
<path d="M99.7202 48.3404C99.1388 48.2883 98.5514 48.2519 97.9561 48.2519C92.8442 48.2887 87.9522 50.3167 84.3374 53.8977C80.7226 57.4787 78.6754 62.325 78.6383 67.3891C78.6383 67.6486 78.6671 67.9002 78.677 68.1567C78.8262 71.8299 80.0407 75.3827 82.1753 78.3897C84.3099 81.3968 87.274 83.7308 90.7128 85.1123C94.1516 86.4938 97.9195 86.8642 101.565 86.1793C105.211 85.4944 108.581 83.7831 111.27 81.2504C113.96 78.7176 115.856 75.4707 116.731 71.8982C117.606 68.3257 117.423 64.5791 116.204 61.1068C114.986 57.6346 112.783 54.5838 109.859 52.3196C106.936 50.0555 103.416 48.6739 99.7202 48.3404ZM97.9561 81.9105C94.2152 81.9142 90.6152 80.4974 87.8967 77.9516C85.1781 75.4059 83.5479 71.9248 83.3412 68.2246C83.3254 67.9464 83.2986 67.6722 83.2986 67.3901C83.2986 64.5182 84.1582 61.7108 85.7688 59.3229C87.3794 56.935 89.6686 55.0739 92.3469 53.9749C95.0252 52.8759 97.9723 52.5883 100.816 53.1486C103.659 53.7089 106.271 55.0918 108.32 57.1225C110.37 59.1533 111.766 61.7406 112.332 64.5573C112.898 67.374 112.607 70.2935 111.498 72.9468C110.388 75.6001 108.51 77.8679 106.099 79.4634C103.689 81.0589 100.855 81.9105 97.9561 81.9105Z" fill="black"/>
<path d="M87.7029 33.468C61.5747 32.0654 40.352 46.3696 18.7711 59.6831C47.5394 33.411 69.9527 26.6063 89.6783 27.0418C133.076 27.9981 138.118 69.0119 180.147 55.2305C141.823 74.2134 131.722 35.8909 87.7029 33.468Z" fill="black"/>
<path d="M92.4445 87.6301C118.573 89.0327 139.795 74.7294 161.377 61.415C132.604 87.6891 110.196 94.4917 90.4691 94.0573C47.0711 93.1 42.0298 52.0911 0 65.8675C38.324 46.8847 48.4254 85.2072 92.4445 87.6301Z" fill="black"/>
</g>
<defs>
<clipPath id="clip0_2_169">
<rect width="180.147" height="122" fill="white"/>
</clipPath>
</defs>
</svg>
