<svg width="181" height="122" viewBox="0 0 181 122" fill="none" xmlns="http://www.w3.org/2000/svg">
<path d="M27.8307 53.5494C28.7352 53.5494 29.4685 52.823 29.4685 51.9269C29.4685 51.0309 28.7352 50.3045 27.8307 50.3045C26.9262 50.3045 26.193 51.0309 26.193 51.9269C26.193 52.823 26.9262 53.5494 27.8307 53.5494Z" fill="#FF4A4A"/>
<path d="M34.003 47.4338C34.9075 47.4338 35.6407 46.7074 35.6407 45.8114C35.6407 44.9153 34.9075 44.189 34.003 44.189C33.0985 44.189 32.3652 44.9153 32.3652 45.8114C32.3652 46.7074 33.0985 47.4338 34.003 47.4338Z" fill="#FF4A4A"/>
<path d="M40.2189 53.5494C41.1234 53.5494 41.8566 52.823 41.8566 51.9269C41.8566 51.0309 41.1234 50.3045 40.2189 50.3045C39.3144 50.3045 38.5811 51.0309 38.5811 51.9269C38.5811 52.823 39.3144 53.5494 40.2189 53.5494Z" fill="#FF4A4A"/>
<path d="M46.4347 59.6649C47.3392 59.6649 48.0725 58.9385 48.0725 58.0425C48.0725 57.1464 47.3392 56.4201 46.4347 56.4201C45.5302 56.4201 44.797 57.1464 44.797 58.0425C44.797 58.9385 45.5302 59.6649 46.4347 59.6649Z" fill="#FF4A4A"/>
<path d="M52.608 65.8649C53.5125 65.8649 54.2458 65.1385 54.2458 64.2425C54.2458 63.3465 53.5125 62.6201 52.608 62.6201C51.7035 62.6201 50.9703 63.3465 50.9703 64.2425C50.9703 65.1385 51.7035 65.8649 52.608 65.8649Z" fill="#FF4A4A"/>
<path d="M52.6506 53.5494C53.5551 53.5494 54.2884 52.823 54.2884 51.9269C54.2884 51.0309 53.5551 50.3045 52.6506 50.3045C51.7461 50.3045 51.0129 51.0309 51.0129 51.9269C51.0129 52.823 51.7461 53.5494 52.6506 53.5494Z" fill="#FF4A4A"/>
<path d="M60.196 46.3299C61.1005 46.3299 61.8337 45.6036 61.8337 44.7075C61.8337 43.8115 61.1005 43.0851 60.196 43.0851C59.2915 43.0851 58.5582 43.8115 58.5582 44.7075C58.5582 45.6036 59.2915 46.3299 60.196 46.3299Z" fill="#FF4A4A"/>
<path d="M58.8239 59.5795C59.7284 59.5795 60.4616 58.8531 60.4616 57.9571C60.4616 57.061 59.7284 56.3346 58.8239 56.3346C57.9194 56.3346 57.1862 57.061 57.1862 57.9571C57.1862 58.8531 57.9194 59.5795 58.8239 59.5795Z" fill="#FF4A4A"/>
<path d="M46.2632 47.4761C47.1677 47.4761 47.901 46.7497 47.901 45.8536C47.901 44.9576 47.1677 44.2312 46.2632 44.2312C45.3587 44.2312 44.6255 44.9576 44.6255 45.8536C44.6255 46.7497 45.3587 47.4761 46.2632 47.4761Z" fill="#FF4A4A"/>
<path d="M40.1763 41.3183C41.0808 41.3183 41.814 40.5919 41.814 39.6958C41.814 38.7998 41.0808 38.0734 40.1763 38.0734C39.2718 38.0734 38.5385 38.7998 38.5385 39.6958C38.5385 40.5919 39.2718 41.3183 40.1763 41.3183Z" fill="#FF4A4A"/>
<path d="M81.8871 71.3647C82.7916 71.3647 83.5249 70.6383 83.5249 69.7423C83.5249 68.8462 82.7916 68.1198 81.8871 68.1198C80.9826 68.1198 80.2494 68.8462 80.2494 69.7423C80.2494 70.6383 80.9826 71.3647 81.8871 71.3647Z" fill="#FF4A4A"/>
<path d="M75.4997 65.2914C76.4043 65.2914 77.1375 64.565 77.1375 63.669C77.1375 62.7729 76.4043 62.0465 75.4997 62.0465C74.5952 62.0465 73.862 62.7729 73.862 63.669C73.862 64.565 74.5952 65.2914 75.4997 65.2914Z" fill="#FF4A4A"/>
<path d="M69.4127 59.1336C70.3172 59.1336 71.0504 58.4072 71.0504 57.5112C71.0504 56.6151 70.3172 55.8887 69.4127 55.8887C68.5082 55.8887 67.775 56.6151 67.775 57.5112C67.775 58.4072 68.5082 59.1336 69.4127 59.1336Z" fill="#FF4A4A"/>
<path d="M106.579 46.8397C107.484 46.8397 108.217 46.1133 108.217 45.2172C108.217 44.3212 107.484 43.5948 106.579 43.5948C105.675 43.5948 104.941 44.3212 104.941 45.2172C104.941 46.1133 105.675 46.8397 106.579 46.8397Z" fill="#FF4A4A"/>
<path d="M114.296 40.4059C115.201 40.4059 115.934 39.6795 115.934 38.7835C115.934 37.8874 115.201 37.161 114.296 37.161C113.392 37.161 112.658 37.8874 112.658 38.7835C112.658 39.6795 113.392 40.4059 114.296 40.4059Z" fill="#FF4A4A"/>
<path d="M107.223 33.0804C108.127 33.0804 108.86 32.354 108.86 31.458C108.86 30.5619 108.127 29.8355 107.223 29.8355C106.318 29.8355 105.585 30.5619 105.585 31.458C105.585 32.354 106.318 33.0804 107.223 33.0804Z" fill="#FF4A4A"/>
<path d="M106.515 59.1974C107.419 59.1974 108.152 58.4711 108.152 57.575C108.152 56.679 107.419 55.9526 106.515 55.9526C105.61 55.9526 104.877 56.679 104.877 57.575C104.877 58.4711 105.61 59.1974 106.515 59.1974Z" fill="#FF4A4A"/>
<path d="M94.1048 71.4286C95.0093 71.4286 95.7425 70.7022 95.7425 69.8061C95.7425 68.9101 95.0093 68.1837 94.1048 68.1837C93.2003 68.1837 92.467 68.9101 92.467 69.8061C92.467 70.7022 93.2003 71.4286 94.1048 71.4286Z" fill="#FF4A4A"/>
<path d="M100.192 40.7663C101.096 40.7663 101.829 40.0399 101.829 39.1439C101.829 38.2479 101.096 37.5215 100.192 37.5215C99.2873 37.5215 98.554 38.2479 98.554 39.1439C98.554 40.0399 99.2873 40.7663 100.192 40.7663Z" fill="#FF4A4A"/>
<path d="M94.1048 34.6086C95.0093 34.6086 95.7425 33.8822 95.7425 32.9861C95.7425 32.0901 95.0093 31.3637 94.1048 31.3637C93.2003 31.3637 92.467 32.0901 92.467 32.9861C92.467 33.8822 93.2003 34.6086 94.1048 34.6086Z" fill="#FF4A4A"/>
<path d="M100.278 65.313C101.182 65.313 101.916 64.5866 101.916 63.6906C101.916 62.7945 101.182 62.0681 100.278 62.0681C99.3735 62.0681 98.6403 62.7945 98.6403 63.6906C98.6403 64.5866 99.3735 65.313 100.278 65.313Z" fill="#FF4A4A"/>
<path d="M81.673 46.8819C82.5775 46.8819 83.3108 46.1555 83.3108 45.2594C83.3108 44.3634 82.5775 43.637 81.673 43.637C80.7685 43.637 80.0353 44.3634 80.0353 45.2594C80.0353 46.1555 80.7685 46.8819 81.673 46.8819Z" fill="#FF4A4A"/>
<path d="M87.9107 40.8302C88.8152 40.8302 89.5484 40.1038 89.5484 39.2077C89.5484 38.3117 88.8152 37.5853 87.9107 37.5853C87.0062 37.5853 86.2729 38.3117 86.2729 39.2077C86.2729 40.1038 87.0062 40.8302 87.9107 40.8302Z" fill="#FF4A4A"/>
<path d="M81.673 34.5241C82.5775 34.5241 83.3108 33.7977 83.3108 32.9017C83.3108 32.0056 82.5775 31.2792 81.673 31.2792C80.7685 31.2792 80.0353 32.0056 80.0353 32.9017C80.0353 33.7977 80.7685 34.5241 81.673 34.5241Z" fill="#FF4A4A"/>
<path d="M75.586 40.7241C76.4905 40.7241 77.2237 39.9977 77.2237 39.1017C77.2237 38.2056 76.4905 37.4792 75.586 37.4792C74.6815 37.4792 73.9482 38.2056 73.9482 39.1017C73.9482 39.9977 74.6815 40.7241 75.586 40.7241Z" fill="#FF4A4A"/>
<path d="M69.2194 46.7758C70.1239 46.7758 70.8571 46.0494 70.8571 45.1534C70.8571 44.2573 70.1239 43.5309 69.2194 43.5309C68.3149 43.5309 67.5817 44.2573 67.5817 45.1534C67.5817 46.0494 68.3149 46.7758 69.2194 46.7758Z" fill="#FF4A4A"/>
<path d="M65.126 29.152C66.0305 29.152 66.7638 28.4256 66.7638 27.5296C66.7638 26.6335 66.0305 25.9071 65.126 25.9071C64.2215 25.9071 63.4883 26.6335 63.4883 27.5296C63.4883 28.4256 64.2215 29.152 65.126 29.152Z" fill="#FF4A4A"/>
<path d="M133.35 59.7288C134.255 59.7288 134.988 59.0024 134.988 58.1063C134.988 57.2103 134.255 56.4839 133.35 56.4839C132.446 56.4839 131.712 57.2103 131.712 58.1063C131.712 59.0024 132.446 59.7288 133.35 59.7288Z" fill="#FF4A4A"/>
<path d="M126.964 53.6554C127.868 53.6554 128.601 52.9291 128.601 52.033C128.601 51.137 127.868 50.4106 126.964 50.4106C126.059 50.4106 125.326 51.137 125.326 52.033C125.326 52.9291 126.059 53.6554 126.964 53.6554Z" fill="#FF4A4A"/>
<path d="M120.876 47.4977C121.78 47.4977 122.513 46.7713 122.513 45.8752C122.513 44.9792 121.78 44.2528 120.876 44.2528C119.971 44.2528 119.238 44.9792 119.238 45.8752C119.238 46.7713 119.971 47.4977 120.876 47.4977Z" fill="#FF4A4A"/>
<path d="M145.503 59.8555C146.408 59.8555 147.141 59.1291 147.141 58.233C147.141 57.337 146.408 56.6106 145.503 56.6106C144.599 56.6106 143.866 57.337 143.866 58.233C143.866 59.1291 144.599 59.8555 145.503 59.8555Z" fill="#FF4A4A"/>
<path d="M139.396 65.9072C140.3 65.9072 141.033 65.1808 141.033 64.2847C141.033 63.3887 140.3 62.6623 139.396 62.6623C138.491 62.6623 137.758 63.3887 137.758 64.2847C137.758 65.1808 138.491 65.9072 139.396 65.9072Z" fill="#FF4A4A"/>
<path d="M139.116 53.7831C140.02 53.7831 140.754 53.0567 140.754 52.1607C140.754 51.2646 140.02 50.5382 139.116 50.5382C138.211 50.5382 137.478 51.2646 137.478 52.1607C137.478 53.0567 138.211 53.7831 139.116 53.7831Z" fill="#FF4A4A"/>
<path d="M151.784 53.6554C152.688 53.6554 153.421 52.9291 153.421 52.033C153.421 51.137 152.688 50.4106 151.784 50.4106C150.879 50.4106 150.146 51.137 150.146 52.033C150.146 52.9291 150.879 53.6554 151.784 53.6554Z" fill="#FF4A4A"/>
<path d="M133.029 47.6253C133.933 47.6253 134.667 46.8989 134.667 46.0029C134.667 45.1069 133.933 44.3805 133.029 44.3805C132.124 44.3805 131.391 45.1069 131.391 46.0029C131.391 46.8989 132.124 47.6253 133.029 47.6253Z" fill="#FF4A4A"/>
<path d="M126.985 41.2554C127.889 41.2554 128.622 40.529 128.622 39.633C128.622 38.7369 127.889 38.0106 126.985 38.0106C126.08 38.0106 125.347 38.7369 125.347 39.633C125.347 40.529 126.08 41.2554 126.985 41.2554Z" fill="#FF4A4A"/>
<path d="M133.222 72.0866C134.127 72.0866 134.86 71.3602 134.86 70.4641C134.86 69.5681 134.127 68.8417 133.222 68.8417C132.318 68.8417 131.584 69.5681 131.584 70.4641C131.584 71.3602 132.318 72.0866 133.222 72.0866Z" fill="#FF4A4A"/>
<path d="M126.835 66.0132C127.739 66.0132 128.473 65.2868 128.473 64.3908C128.473 63.4948 127.739 62.7684 126.835 62.7684C125.93 62.7684 125.197 63.4948 125.197 64.3908C125.197 65.2868 125.93 66.0132 126.835 66.0132Z" fill="#FF4A4A"/>
<path d="M121.005 72.0227C121.909 72.0227 122.642 71.2963 122.642 70.4003C122.642 69.5042 121.909 68.7778 121.005 68.7778C120.1 68.7778 119.367 69.5042 119.367 70.4003C119.367 71.2963 120.1 72.0227 121.005 72.0227Z" fill="#FF4A4A"/>
<path d="M114.488 78.3082C115.393 78.3082 116.126 77.5818 116.126 76.6857C116.126 75.7897 115.393 75.0633 114.488 75.0633C113.584 75.0633 112.851 75.7897 112.851 76.6857C112.851 77.5818 113.584 78.3082 114.488 78.3082Z" fill="#FF4A4A"/>
<path d="M120.747 59.8555C121.651 59.8555 122.385 59.1291 122.385 58.233C122.385 57.337 121.651 56.6106 120.747 56.6106C119.842 56.6106 119.109 57.337 119.109 58.233C119.109 59.1291 119.842 59.8555 120.747 59.8555Z" fill="#FF4A4A"/>
<path d="M114.038 67.0543C114.943 67.0543 115.676 66.3279 115.676 65.4318C115.676 64.5358 114.943 63.8094 114.038 63.8094C113.134 63.8094 112.401 64.5358 112.401 65.4318C112.401 66.3279 113.134 67.0543 114.038 67.0543Z" fill="#FF4A4A"/>
<path d="M52.5228 41.276C53.4273 41.276 54.1605 40.5497 54.1605 39.6536C54.1605 38.7576 53.4273 38.0312 52.5228 38.0312C51.6183 38.0312 50.885 38.7576 50.885 39.6536C50.885 40.5497 51.6183 41.276 52.5228 41.276Z" fill="#FF4A4A"/>
<path d="M58.7813 35.1183C59.6858 35.1183 60.419 34.3919 60.419 33.4958C60.419 32.5998 59.6858 31.8734 58.7813 31.8734C57.8768 31.8734 57.1436 32.5998 57.1436 33.4958C57.1436 34.3919 57.8768 35.1183 58.7813 35.1183Z" fill="#FF4A4A"/>
<path d="M88.3737 25.3444C82.9228 25.3444 77.5944 26.9456 73.0621 29.9457C68.5299 32.9457 64.9975 37.2098 62.9115 42.1986C60.8255 47.1875 60.2798 52.6771 61.3432 57.9733C62.4066 63.2694 65.0314 68.1342 68.8858 71.9526C72.7401 75.7709 77.6509 78.3712 82.997 79.4247C88.3431 80.4781 93.8845 79.9374 98.9205 77.871C103.956 75.8045 108.261 72.3051 111.289 67.8152C114.317 63.3254 115.934 58.0467 115.934 52.6468C115.934 45.4058 113.03 38.4613 107.862 33.3411C102.693 28.2209 95.6831 25.3444 88.3737 25.3444ZM88.3737 73.3692C84.238 73.369 80.1952 72.154 76.7565 69.8778C73.3178 67.6015 70.6376 64.3664 69.0548 60.5812C67.472 56.7961 67.0577 52.6311 67.8642 48.6127C68.6708 44.5943 70.6619 40.9031 73.5859 38.0057C76.51 35.1083 80.2356 33.1349 84.2917 32.335C88.3478 31.535 92.5522 31.9445 96.3734 33.5116C100.195 35.0787 103.461 37.7331 105.76 41.1391C108.058 44.5451 109.285 48.5498 109.287 52.6468C109.287 55.3679 108.747 58.0625 107.696 60.5767C106.646 63.0909 105.105 65.3754 103.163 67.2997C101.221 69.2241 98.9157 70.7505 96.378 71.792C93.8404 72.8334 91.1205 73.3693 88.3737 73.3692Z" fill="black"/>
<path d="M88.3737 39.8255C87.7433 39.8258 87.1138 39.8714 86.4901 39.962C87.4034 41.3031 87.7708 42.9368 87.5186 44.5352C87.2665 46.1336 86.4134 47.5783 85.1307 48.5795C83.8479 49.5806 82.2304 50.0641 80.6027 49.9329C78.9751 49.8016 77.4578 49.0653 76.3553 47.8718C75.3226 50.4194 75.1425 53.228 75.8413 55.8846C76.5401 58.5412 78.081 60.9055 80.2373 62.6298C82.3937 64.3541 85.0517 65.3474 87.8205 65.4636C90.5892 65.5797 93.3224 64.8126 95.6183 63.2751C97.9141 61.7376 99.6513 59.5108 100.574 56.9223C101.497 54.3338 101.558 51.5201 100.746 48.8952C99.9344 46.2702 98.294 43.9726 96.066 42.3401C93.838 40.7076 91.1399 39.8266 88.3687 39.8265L88.3737 39.8255Z" fill="black"/>
<path d="M87.6311 25.4406C61.5244 24.0392 40.319 38.3317 18.7557 51.6343C47.5005 25.3837 69.8955 18.5846 89.6049 19.0196C132.967 19.9752 138.005 60.9554 180 47.1854C141.707 66.1527 131.614 27.8615 87.6311 25.4406Z" fill="black"/>
<path d="M92.3689 79.5584C118.476 80.9599 139.681 66.6683 161.245 53.3647C132.496 79.6173 110.105 86.4145 90.3951 85.9804C47.0326 85.0238 41.9954 44.0485 0 57.8137C38.2926 38.8463 48.3858 77.1375 92.3689 79.5584Z" fill="black"/>
</svg>
