<svg width="181" height="122" viewBox="0 0 181 122" fill="none" xmlns="http://www.w3.org/2000/svg">
<g clip-path="url(#clip0_2_119)">
<path d="M93.2932 42.4189L89.8629 34.7537L86.4345 42.4189C88.7026 42.0151 91.0251 42.0151 93.2932 42.4189Z" fill="#FF4A4A"/>
<path d="M83.1938 43.2729L76.3588 38.3388L77.2583 46.678C79.0183 45.2054 81.0274 44.0529 83.1928 43.2738L83.1938 43.2729Z" fill="#FF4A4A"/>
<path d="M74.8915 49.0218L66.4727 48.1326L71.4562 54.9017C72.2428 52.7569 73.4057 50.7666 74.8915 49.0227V49.0218Z" fill="#FF4A4A"/>
<path d="M116.871 61.5076L109.133 58.1103C109.541 60.3577 109.541 62.6593 109.133 64.9068L116.871 61.5076Z" fill="#FF4A4A"/>
<path d="M113.251 48.1287L104.833 49.0208C106.319 50.7649 107.483 52.7555 108.27 54.9008L113.251 48.1287Z" fill="#FF4A4A"/>
<path d="M103.366 38.3378L96.5329 43.2738C98.698 44.053 100.707 45.2051 102.467 46.677L103.366 38.3378Z" fill="#FF4A4A"/>
<path d="M76.3608 84.6763L83.1928 79.7403C81.0276 78.9613 79.0186 77.8092 77.2584 76.3371L76.3608 84.6763Z" fill="#FF4A4A"/>
<path d="M96.5339 79.7432L103.368 84.6763L102.468 76.3391C100.708 77.8108 98.6982 78.9629 96.5329 79.7423L96.5339 79.7432Z" fill="#FF4A4A"/>
<path d="M104.835 73.9953L113.253 74.8845L108.27 68.1163C107.484 70.2611 106.321 72.2514 104.835 73.9953Z" fill="#FF4A4A"/>
<path d="M70.2891 61.5085C70.2905 60.3691 70.393 59.232 70.5952 58.1103L62.8567 61.5095L70.5952 64.9068C70.3929 63.7851 70.2905 62.648 70.2891 61.5085Z" fill="#FF4A4A"/>
<path d="M66.4756 74.8874L74.8924 73.9963C73.4064 72.2522 72.2434 70.2615 71.4572 68.1163L66.4756 74.8874Z" fill="#FF4A4A"/>
<path d="M86.4345 80.5962L89.8658 88.2614L93.2981 80.5962C91.0297 81 88.7068 81 86.4385 80.5962H86.4345Z" fill="#FF4A4A"/>
<path d="M89.8628 44.4389C86.4549 44.4387 83.1234 45.4396 80.2897 47.3152C77.4561 49.1907 75.2474 51.8565 73.9431 54.9756C72.6388 58.0946 72.2975 61.5268 72.9622 64.838C73.6269 68.1493 75.2679 71.1909 77.6776 73.5782C80.0873 75.9656 83.1575 77.5914 86.5 78.2501C89.8424 78.9088 93.307 78.5708 96.4555 77.2789C99.604 75.987 102.295 73.7991 104.189 70.992C106.082 68.1849 107.092 64.8846 107.092 61.5085C107.092 56.9815 105.277 52.64 102.046 49.4388C98.8149 46.2377 94.4325 44.4391 89.8628 44.4389Z" fill="black"/>
<path d="M89.8639 68.9664C94.0221 68.9664 97.393 65.627 97.393 61.5076C97.393 57.3882 94.0221 54.0488 89.8639 54.0488C85.7056 54.0488 82.3347 57.3882 82.3347 61.5076C82.3347 65.627 85.7056 68.9664 89.8639 68.9664Z" fill="white"/>
<path d="M87.7024 34.469C61.575 33.0663 40.3542 47.3696 18.771 60.6839C47.5397 34.4103 69.9524 27.6069 89.6782 28.0422C133.076 28.9989 138.118 70.0071 180.146 56.2311C141.822 75.2141 131.721 36.892 87.7024 34.469Z" fill="black"/>
<path d="M92.444 88.6312C118.572 90.0339 139.794 75.7306 161.376 62.4153C132.612 88.6898 110.197 95.4932 90.4682 95.0579C47.0707 94.1013 42.0299 53.092 0 66.8691C38.3241 47.8861 48.4255 86.2121 92.444 88.6312Z" fill="black"/>
</g>
<defs>
<clipPath id="clip0_2_119">
<rect width="180.147" height="122" fill="white"/>
</clipPath>
</defs>
</svg>
