<svg width="180" height="122" viewBox="0 0 180 122" fill="none" xmlns="http://www.w3.org/2000/svg">
<g clip-path="url(#clip0_2_196)">
<path d="M101.078 41.0468L97.6775 45.596C101.523 47.7221 104.446 51.1956 105.884 55.3479C107.321 59.5001 107.172 64.0374 105.464 68.0861C103.756 72.1348 100.611 75.4085 96.6343 77.277C92.6573 79.1455 88.1297 79.4765 83.9232 78.2064L80.7932 81.9212C80.1398 82.6966 79.9788 82.588 80.4341 81.684L82.4458 77.6835C78.8274 76.2409 75.7828 73.6501 73.7799 70.3091C71.777 66.9681 70.9266 63.0618 71.3594 59.1906C71.7921 55.3193 73.4842 51.6973 76.1754 48.8811C78.8667 46.0649 82.4082 44.2103 86.2559 43.6024L87.7399 39.439C87.9393 38.9523 88.2763 38.5343 88.7095 38.236C89.1427 37.9378 89.6535 37.7723 90.1793 37.7597C89.7983 37.7416 89.4306 37.7025 89.0496 37.7025C83.3554 37.6875 77.849 39.7381 73.5516 43.474C69.2542 47.2099 66.4576 52.3775 65.6804 58.0185C64.9032 63.6594 66.1982 69.3908 69.3252 74.1496C72.4522 78.9084 77.199 82.3716 82.6851 83.897C88.1713 85.4223 94.0244 84.9062 99.159 82.4444C104.294 79.9826 108.361 75.7421 110.607 70.5096C112.853 65.277 113.125 59.4074 111.373 53.9895C109.621 48.5716 105.963 43.9731 101.078 41.0468Z" fill="black"/>
<path d="M103.254 53.0752H93.9255C92.912 53.0752 92.5796 52.4084 93.1864 51.5988L97.6756 45.5979L101.076 41.0468C97.7719 39.0667 94.0282 37.9369 90.1802 37.7587C89.6544 37.7713 89.1436 37.9368 88.7104 38.2351C88.2772 38.5333 87.9402 38.9513 87.7408 39.438L86.2577 43.6024L79.6854 62.0508C79.5925 62.2461 79.5533 62.4626 79.5717 62.6781C79.5901 62.8936 79.6655 63.1003 79.7902 63.2771C79.9149 63.4538 80.0843 63.5942 80.2812 63.6839C80.478 63.7735 80.6951 63.8092 80.9103 63.7872H87.5894C87.7937 63.7546 88.0032 63.7832 88.1913 63.8695C88.3794 63.9558 88.5377 64.0958 88.6463 64.272C88.7549 64.4482 88.8089 64.6525 88.8015 64.8593C88.7941 65.0662 88.7257 65.2662 88.6047 65.4341L82.4448 77.6835L80.4331 81.684C79.9778 82.5899 80.1397 82.6966 80.7922 81.9212L83.9222 78.2064L103.909 54.4887C104.563 53.7096 104.268 53.0752 103.254 53.0752Z" fill="#FF4A4A"/>
<path d="M87.8113 34.4411C61.9486 33.04 40.9418 47.3363 19.5797 60.6344C48.0561 34.3821 70.2412 27.5849 89.7668 28.0193C132.725 28.9718 137.714 69.9509 179.317 56.1852C141.382 75.1498 131.383 36.8586 87.8113 34.4411Z" fill="black"/>
<path d="M92.5044 88.5593C118.367 89.9604 139.374 75.6689 160.737 62.3651C132.257 88.6174 110.075 95.4174 90.5498 94.9802C47.5913 94.0277 42.603 53.0485 0.999939 66.8143C38.9339 47.8478 48.9325 86.138 92.5044 88.5593Z" fill="black"/>
</g>
<defs>
<clipPath id="clip0_2_196">
<rect width="180" height="121.9" fill="white"/>
</clipPath>
</defs>
</svg>
