<svg width="180" height="122" viewBox="0 0 180 122" fill="none" xmlns="http://www.w3.org/2000/svg">
<g clip-path="url(#clip0_2_334)">
<path d="M90.996 122L98.4724 109.041H83.5197L90.996 122Z" fill="#FF4A4A"/>
<path d="M144.67 93.211L133.112 101.168L144.748 107.25L144.67 93.211Z" fill="#FF4A4A"/>
<path d="M38.4029 87.0188L48.8029 96.4435L36.4634 100.931L38.4029 87.0188Z" fill="#FF4A4A"/>
<path d="M91.3671 37.3396C86.7001 37.3398 82.1379 38.7251 78.2576 41.3203C74.3772 43.9154 71.3529 47.6039 69.567 51.9193C67.7812 56.2347 67.3141 60.9832 68.2247 65.5643C69.1353 70.1454 71.3828 74.3534 74.683 77.6561C77.9831 80.9588 82.1877 83.208 86.7651 84.1192C91.3424 85.0303 96.087 84.5626 100.399 82.775C104.71 80.9875 108.396 77.9605 110.989 74.0768C113.581 70.1931 114.965 65.6271 114.965 60.9562C114.965 57.8548 114.355 54.7837 113.169 51.9183C111.983 49.0529 110.245 46.4494 108.053 44.2564C105.862 42.0633 103.261 40.3238 100.398 39.137C97.5346 37.9502 94.466 37.3395 91.3671 37.3396ZM91.3671 78.8754C87.8259 78.8754 84.3643 77.8245 81.42 75.8555C78.4756 73.8865 76.1808 71.0879 74.8256 67.8136C73.4705 64.5393 73.1159 60.9364 73.8068 57.4604C74.4976 53.9844 76.2028 50.7915 78.7068 48.2854C81.2108 45.7794 84.401 44.0728 87.8741 43.3813C91.3472 42.6899 94.9472 43.0448 98.2188 44.4011C101.49 45.7573 104.287 48.0541 106.254 51.0009C108.221 53.9477 109.271 57.4121 109.271 60.9562C109.272 63.3095 108.809 65.6398 107.909 67.814C107.009 69.9881 105.69 71.9637 104.028 73.6277C102.365 75.2918 100.391 76.6118 98.2191 77.5124C96.0467 78.413 93.7184 78.8766 91.3671 78.8766V78.8754Z" fill="black"/>
<path d="M91.3682 51.1232C90.891 51.1235 90.4144 51.1583 89.9422 51.2275C90.6355 52.2558 90.9145 53.5084 90.7232 54.7341C90.5319 55.9597 89.8845 57.0675 88.9108 57.8351C87.9372 58.6028 86.7095 58.9734 85.4742 58.8726C84.2388 58.7719 83.0873 58.2071 82.2507 57.2918C81.4674 59.2453 81.3311 61.3988 81.8619 63.4356C82.3927 65.4723 83.5625 67.2849 85.1993 68.6067C86.8361 69.9284 88.8535 70.6896 90.9548 70.7783C93.0561 70.867 95.1304 70.2785 96.8726 69.0993C98.6148 67.9202 99.9329 66.2127 100.633 64.2278C101.333 62.243 101.379 60.0857 100.763 58.0731C100.146 56.0606 98.9012 54.2991 97.2102 53.0476C95.5191 51.7961 93.4714 51.1208 91.3682 51.1209V51.1232Z" fill="black"/>
<path d="M167.204 55.5651C155.743 61.1223 143.271 58.158 134.595 48.0265C138.832 50.912 143.519 53.0732 148.464 54.4218C154.568 56.0758 160.945 56.4648 167.204 55.5651Z" fill="#FF4A4A"/>
<path d="M43.5687 70.2384C34.376 61.4185 21.596 60.3952 10.2252 67.3605C21.3082 64.1128 33.2049 65.1396 43.5687 70.2384Z" fill="#FF4A4A"/>
<path d="M91.1676 0L98.6439 12.9589H83.6913L91.1676 0Z" fill="#FF4A4A"/>
<path d="M144.261 36.0302L132.938 27.7388L144.746 21.9987L144.261 36.0302Z" fill="#FF4A4A"/>
<path d="M36.4634 29.7628L48.3466 22.3017L36.9791 15.7325L36.4634 29.7628Z" fill="#FF4A4A"/>
<path d="M49.4498 36.12C32.4008 43.717 17.33 55.1434 5.40686 69.5124C11.7262 59.5268 28.0051 36.9648 57.9148 25.5666C68.6938 21.459 77.743 18.9469 89.8649 19.2196C133.104 20.1822 138.127 61.4622 180.004 47.5945C170.817 52.1946 161.955 54.7404 153.765 52.7769C127.919 46.578 108.453 9.99013 49.4498 36.12Z" fill="black"/>
<path d="M130.55 85.5602C146.192 78.6675 159.933 68.0855 170.598 54.7191C168.26 58.4441 152.745 82.6183 128.894 93.8404C120.099 97.8281 110.779 100.535 101.217 101.879C97.5426 102.317 93.8437 102.511 90.1441 102.461C46.8993 101.497 41.877 60.2179 0 74.0857C13.9325 67.1136 25.8257 67.7083 38.0228 72.9491C59.2545 82.0719 79.3808 107.539 130.55 85.5602Z" fill="black"/>
</g>
<defs>
<clipPath id="clip0_2_334">
<rect width="180" height="121.9" fill="white"/>
</clipPath>
</defs>
</svg>
